<svg width="718" height="130" viewBox="0 0 718 130" fill="none" xmlns="http://www.w3.org/2000/svg">
<path d="M62.4189 120.782H151.289" stroke="#FEFEFE" stroke-width="3.37972" stroke-miterlimit="2.61313"/>
<path d="M566.106 120.782H654.976" stroke="#FEFEFE" stroke-width="6.46988" stroke-miterlimit="2.61313"/>
<path d="M174.515 111.891L177.719 122.657V122.937L177.926 122.729L177.938 122.717L177.944 122.71L180.686 118.922L180.687 118.921L181.209 118.191L182.566 116.312L183.934 118.19V118.191L184.459 118.921L184.46 118.922L187.197 122.703L187.342 122.902L187.412 122.666L190.62 111.891H193.714L189.554 125.874L189.533 125.944L189.537 125.948L188.471 129.532L186.259 126.471V126.467L186.236 126.435L182.664 121.515L182.566 121.38L182.467 121.516L178.9 126.441L176.668 129.523L175.579 125.879L171.419 111.891H174.515Z" fill="#FEFEFE" stroke="#FEFEFE" stroke-width="0.24332"/>
<path d="M202.107 111.891H215.146V114.859H202.228V114.854H202.107C201.129 114.854 200.335 115.662 200.335 116.638V118.429H211.934V121.397H200.335V124.923C200.336 125.899 201.129 126.707 202.107 126.707H215.146V129.675H202.107C199.488 129.675 197.37 127.545 197.37 124.925V116.64C197.37 114.021 199.488 111.891 202.107 111.891Z" fill="#FEFEFE" stroke="#FEFEFE" stroke-width="0.24332"/>
<path d="M247.928 126.635L249.473 129.677H246.139L244.526 126.525L240.592 118.801L240.483 118.589L240.375 118.802L236.447 126.525L234.835 129.677H231.496L233.046 126.635L240.483 112.037L247.928 126.635Z" fill="#FEFEFE" stroke="#FEFEFE" stroke-width="0.24332"/>
<path d="M264.542 111.894C265.774 111.894 266.89 112.36 267.73 113.124L267.895 113.281C268.749 114.148 269.28 115.339 269.28 116.643C269.28 118.562 268.144 120.22 266.507 120.96L266.506 120.961C266.082 121.159 265.624 121.294 265.147 121.349H264.95L265.04 121.526L267.641 126.63L269.191 129.678H265.853L264.24 126.52L262.52 123.141L262.518 123.137L262.44 122.995L262.437 122.991L262.323 122.816C261.724 121.956 260.725 121.393 259.593 121.393H256.257V129.678H253.289V111.894H264.542ZM256.262 118.252L256.088 118.427H264.542C264.794 118.427 265.037 118.38 265.271 118.263L265.27 118.262C265.913 117.971 266.314 117.341 266.314 116.643C266.314 116.009 265.981 115.574 265.786 115.369L265.782 115.364C265.555 115.151 265.155 114.86 264.545 114.859H256.262V118.252Z" fill="#FEFEFE" stroke="#FEFEFE" stroke-width="0.24332"/>
<path d="M278.765 111.891H291.804V114.859H278.886V114.854H278.765C277.787 114.854 276.993 115.662 276.993 116.638V118.429H288.592V121.397H276.993V124.923C276.994 125.899 277.787 126.707 278.765 126.707H291.804V129.675H278.765C276.146 129.675 274.028 127.545 274.028 124.925V116.64C274.028 114.021 276.146 111.891 278.765 111.891Z" fill="#FEFEFE" stroke="#FEFEFE" stroke-width="0.24332"/>
<path d="M312.08 111.891V118.433H323.912V111.896H326.886V129.672H323.912V121.405H312.08V129.668H309.109V111.891H312.08Z" fill="#FEFEFE" stroke="#FEFEFE" stroke-width="0.24332"/>
<path d="M336.386 111.891H349.425V114.859H336.507V114.854H336.386C335.407 114.854 334.614 115.662 334.614 116.638V118.429H346.213V121.397H334.614V124.923C334.614 125.899 335.407 126.707 336.386 126.707H349.425V129.675H336.386C333.767 129.675 331.648 127.545 331.648 124.925V116.64C331.648 114.021 333.767 111.891 336.386 111.891Z" fill="#FEFEFE" stroke="#FEFEFE" stroke-width="0.24332"/>
<path d="M365.44 111.894C366.672 111.894 367.787 112.36 368.627 113.124L368.792 113.281C369.647 114.148 370.177 115.339 370.177 116.643C370.177 118.562 369.041 120.22 367.405 120.96L367.404 120.961C366.979 121.159 366.522 121.294 366.044 121.349H365.847L365.938 121.526L368.539 126.63L370.088 129.678H366.75L365.137 126.52L363.417 123.141L363.416 123.137L363.337 122.995L363.334 122.991L363.22 122.816C362.621 121.956 361.622 121.393 360.491 121.393H357.155V129.678H354.187V111.894H365.44ZM357.16 118.252L356.986 118.427H365.44C365.692 118.427 365.935 118.38 366.168 118.263L366.167 118.262C366.81 117.971 367.211 117.341 367.211 116.643C367.211 116.009 366.879 115.574 366.684 115.369L366.679 115.364C366.453 115.151 366.052 114.86 365.443 114.859H357.16V118.252Z" fill="#FEFEFE" stroke="#FEFEFE" stroke-width="0.24332"/>
<path d="M379.662 111.891H392.701V114.859H379.784V114.854H379.662C378.684 114.854 377.891 115.662 377.891 116.638V118.429H389.49V121.397H377.891V124.923C377.891 125.899 378.684 126.707 379.662 126.707H392.701V129.675H379.662C377.044 129.675 374.925 127.545 374.925 124.925V116.64C374.925 114.021 377.044 111.891 379.662 111.891Z" fill="#FEFEFE" stroke="#FEFEFE" stroke-width="0.24332"/>
<path d="M427.784 111.906V114.881H420.384V129.685H417.41V114.881H410.007V111.906H427.784Z" fill="#FEFEFE" stroke="#FEFEFE" stroke-width="0.24332"/>
<path d="M439.117 111.896C444.026 111.896 448.006 115.875 448.006 120.784C448.006 125.69 444.023 129.672 439.117 129.672C434.209 129.672 430.229 125.69 430.229 120.784C430.23 115.875 434.209 111.896 439.117 111.896ZM439.117 114.867C435.853 114.867 433.197 117.522 433.197 120.787C433.197 124.051 435.85 126.706 439.117 126.707C442.381 126.707 445.037 124.051 445.037 120.787C445.037 117.522 442.381 114.867 439.117 114.867Z" fill="#FEFEFE" stroke="#FEFEFE" stroke-width="0.24332"/>
<path d="M467.721 114.352L473.509 118.817L473.583 118.875L473.658 118.817L479.454 114.352L482.477 112.017V129.677H479.501V118.077L479.305 118.228L476.147 120.659L473.583 122.634L471.028 120.659L467.87 118.228L467.673 118.077V129.677H464.691V112.016L467.721 114.352Z" fill="#FEFEFE" stroke="#FEFEFE" stroke-width="0.24332"/>
<path d="M495.502 111.896C500.41 111.896 504.39 115.875 504.39 120.784C504.39 125.69 500.408 129.672 495.502 129.672C490.593 129.672 486.614 125.69 486.614 120.784C486.614 115.875 490.593 111.896 495.502 111.896ZM495.502 114.867C492.237 114.867 489.582 117.522 489.582 120.787C489.582 124.051 492.235 126.706 495.502 126.707C498.766 126.707 501.421 124.051 501.422 120.787C501.422 117.522 498.766 114.867 495.502 114.867Z" fill="#FEFEFE" stroke="#FEFEFE" stroke-width="0.24332"/>
<path d="M510.917 111.896L512.533 115.053L516.46 122.771L516.569 122.984L516.677 122.771L520.609 115.053L522.224 111.896H525.555L524.01 114.943L516.569 129.534L509.131 114.943L507.582 111.896H510.917Z" fill="#FEFEFE" stroke="#FEFEFE" stroke-width="0.24332"/>
<path d="M532.979 111.891H546.018V114.859H533.1V114.854H532.979C532 114.854 531.207 115.662 531.207 116.638V118.429H542.806V121.397H531.207V124.923C531.207 125.899 532 126.707 532.979 126.707H546.018V129.675H532.979C530.36 129.675 528.241 127.545 528.241 124.925V116.64C528.241 114.021 530.36 111.891 532.979 111.891Z" fill="#FEFEFE" stroke="#FEFEFE" stroke-width="0.24332"/>
<path d="M717.269 0.12207V97.1895H530.806V0.12207H717.269Z" fill="#ED3237" stroke="#FEFEFE" stroke-width="0.24332"/>
<path d="M461.264 7.42651V44.1726H506.865V7.42651H523.272V90.6638H506.865V55.7566H461.264V90.6638H444.858V7.42651H461.264Z" fill="#FEFEFE" stroke="#FEFEFE" stroke-width="0.24332"/>
<path d="M374.229 7.42651H421.423C425.08 7.42651 427.801 8.30246 429.607 10.032C431.416 11.7667 432.326 14.1057 432.326 17.0642V32.9041H417.183V24.2976C417.183 23.4116 417.11 22.6827 416.963 22.114C416.816 21.5468 416.592 21.1251 416.275 20.8718C415.965 20.6233 415.487 20.4468 414.857 20.3308C414.226 20.2143 413.428 20.157 412.467 20.157H383.466L383.473 20.1638C382.676 20.1766 381.997 20.2412 381.44 20.363C380.817 20.4991 380.335 20.7053 380.008 20.9919C379.677 21.2813 379.437 21.7278 379.28 22.3152C379.123 22.9033 379.047 23.6423 379.047 24.5291V48.1892H420.506C423.025 48.1892 425.078 48.4375 426.67 48.9314C428.262 49.4251 429.504 50.1782 430.403 51.1921V51.1931C431.308 52.2077 431.93 53.4535 432.272 54.9275C432.614 56.4075 432.786 58.1795 432.786 60.239V81.2517C432.786 83.8954 431.787 86.1208 429.782 87.9353C427.785 89.746 424.963 90.6609 421.309 90.6609H366.408L364.269 78.1589H412.581C413.584 78.1589 414.403 78.0488 415.033 77.822C415.665 77.5948 416.115 77.2472 416.363 76.7722C416.835 75.8687 417.065 74.7189 417.065 73.3298V64.2585C417.065 63.3724 416.998 62.626 416.861 62.0212C416.725 61.4175 416.518 60.9464 416.232 60.6189C415.94 60.2843 415.452 60.0464 414.791 59.8914C414.128 59.7357 413.274 59.6599 412.235 59.6599H371.586C368.931 59.6598 366.819 58.9199 365.238 57.4539C363.662 55.9922 362.866 53.8266 362.866 50.9412V17.0662C362.866 14.2663 363.849 11.9639 365.813 10.1511C367.773 8.34129 370.572 7.42657 374.229 7.42651Z" fill="#FEFEFE" stroke="#FEFEFE" stroke-width="0.24332"/>
<path d="M335.541 90.3533L335.514 90.3201L289.811 33.1814L289.594 32.9099V90.6638H274.451V7.42651H287.477L335.323 68.5378L335.541 68.8162V7.42651H350.8V90.6638H335.541V90.3533Z" fill="#FEFEFE" stroke="#FEFEFE" stroke-width="0.24332"/>
<path d="M62.2363 7.42651C66.3444 7.42651 69.5435 8.66034 71.8516 11.1199C74.1645 13.5822 75.3193 16.6351 75.3193 20.281V79.532C75.3193 80.8929 75.0552 82.2378 74.5254 83.5623C73.9969 84.8857 73.1844 86.0756 72.084 87.1375C70.988 88.1974 69.6059 89.0488 67.9346 89.696C66.2678 90.3415 64.3319 90.6638 62.1221 90.6638H0.12207V78.1619H16.2998V78.2761H52.8223C54.2815 78.2761 55.424 78.1614 56.2432 77.9255C57.0628 77.692 57.6817 77.3154 58.084 76.7927C58.4317 76.3409 58.6708 75.7846 58.8047 75.1287L58.8555 74.8416C58.9709 74.0679 59.0293 73.1831 59.0293 72.1833V26.0281H59.0322V25.906C59.0322 23.8326 58.6879 22.3052 57.9727 21.3533C57.605 20.8627 56.9722 20.5087 56.0986 20.2761C55.2231 20.043 54.0918 19.9275 52.708 19.9275H16.2998V61.9783H0.12207V7.42651H62.2363ZM238.071 7.42651L265.207 90.6638H248.008L242.638 73.8689L242.611 73.7839H197.879L197.852 73.8689L192.481 90.6638H175.286L202.649 7.42651H238.071ZM104.031 7.42651V44.1726H149.632V7.42651H166.039V90.6638H149.632V55.7566H104.031V90.6638H87.624V7.42651H104.031ZM214.616 19.4412L201.411 61.9275L201.362 62.0857H239.127L239.078 61.9285L225.988 19.4421L225.962 19.3562H214.643L214.616 19.4412Z" fill="#FEFEFE" stroke="#FEFEFE" stroke-width="0.24332"/>
<path d="M558.957 7.2514V72.8237C558.957 73.7811 559.043 74.5828 559.219 75.225C559.394 75.8668 559.661 76.3579 560.027 76.683C560.39 77.0059 560.917 77.2417 561.595 77.3969C562.273 77.5523 563.112 77.6293 564.106 77.6293H596.324C598.311 77.6293 599.737 77.3061 600.571 76.6313C601.417 75.9474 601.815 74.6195 601.815 72.7094V7.2514H618.366V73.853C618.366 79.393 616.924 83.469 614.064 86.102C611.198 88.742 607.194 90.0678 602.035 90.0678H558.738C553.579 90.0678 549.575 88.7398 546.708 86.102C543.849 83.4665 542.407 79.3929 542.407 73.853V7.2514H558.957Z" fill="#FEFEFE" stroke="#FEFEFE" stroke-width="0.24332"/>
<path d="M646.709 7.2514V44.0385H672.729L672.762 43.9672L689.64 7.2514H705.588L688.532 43.8657L688.451 44.0385H688.643C691.222 44.0385 693.34 44.3614 694.998 45.0014C696.66 45.6432 697.994 46.5093 699.009 47.5981C700.023 48.6895 700.738 49.9291 701.151 51.3217C701.567 52.722 701.85 54.1416 702.003 55.5805V55.5815L704.735 90.0698H688.415L686.481 61.6196C686.337 59.3185 685.669 57.6933 684.449 56.7846L684.198 56.6127L683.938 56.4575C682.608 55.7079 680.862 55.3364 678.708 55.3364H646.709V90.0678H630.613V7.2514H646.709Z" fill="#FEFEFE" stroke="#FEFEFE" stroke-width="0.24332"/>
</svg>
